<?xml version="1.0" standalone="no"?>
<!DOCTYPE svg PUBLIC "-//W3C//DTD SVG 20010904//EN"
 "http://www.w3.org/TR/2001/REC-SVG-20010904/DTD/svg10.dtd">
<svg version="1.0" xmlns="http://www.w3.org/2000/svg"
 width="700.000000pt" height="700.000000pt" viewBox="0 0 700.000000 700.000000"
 preserveAspectRatio="xMidYMid meet">
<metadata>
Created by potrace 1.14, written by Peter Selinger 2001-2017
</metadata>
<g transform="translate(0.000000,700.000000) scale(0.100000,-0.100000)"
fill="#000000" stroke="none">
<path d="M3428 6945 c-2 -1 -32 -5 -68 -8 -201 -17 -443 -105 -614 -225 -282
-196 -477 -481 -551 -805 -32 -141 -33 -150 -34 -613 l-1 -390 -278 -1 c-259
-1 -282 -2 -318 -21 -86 -45 -128 -119 -138 -247 -4 -38 -9 -99 -11 -135 -3
-36 -8 -84 -10 -106 -5 -40 -10 -90 -20 -214 -5 -52 -11 -127 -20 -215 -2 -22
-6 -74 -10 -115 -3 -41 -8 -88 -10 -105 -2 -16 -7 -66 -10 -110 -3 -44 -8 -96
-10 -115 -3 -19 -7 -61 -10 -92 -10 -117 -16 -174 -20 -218 -5 -53 -15 -169
-20 -225 -2 -22 -7 -69 -10 -105 -4 -36 -8 -85 -10 -110 -1 -25 -6 -74 -10
-110 -10 -96 -13 -127 -20 -215 -3 -44 -8 -91 -10 -105 -2 -14 -6 -60 -10
-103 -3 -43 -8 -95 -10 -115 -2 -20 -6 -68 -9 -107 -3 -38 -8 -90 -11 -115 -2
-25 -7 -76 -10 -115 -3 -38 -8 -86 -10 -105 -4 -38 -11 -106 -20 -215 -6 -73
-13 -146 -20 -205 -2 -19 -7 -73 -10 -120 -3 -47 -8 -96 -10 -110 -2 -14 -7
-61 -10 -105 -3 -44 -8 -93 -10 -110 -2 -16 -6 -61 -10 -100 -16 -182 -15
-175 -31 -325 -9 -88 -4 -162 14 -203 25 -56 95 -113 152 -125 27 -6 977 -9
2325 -8 l2280 2 41 21 c48 25 91 73 112 123 11 27 13 59 8 145 -3 61 -8 121
-10 135 -3 14 -7 59 -10 100 -4 41 -8 93 -10 115 -4 35 -12 124 -21 230 -2 17
-6 66 -9 110 -4 44 -9 94 -11 110 -2 17 -7 64 -10 105 -3 41 -7 89 -9 105 -4
31 -12 118 -22 235 -3 36 -7 81 -9 100 -3 19 -7 67 -10 105 -3 39 -8 86 -10
105 -3 19 -7 71 -11 114 -3 44 -7 94 -9 110 -3 17 -7 65 -10 106 -3 41 -8 89
-10 105 -2 17 -6 64 -10 105 -3 41 -8 95 -11 120 -2 25 -6 68 -9 95 -11 127
-16 183 -20 220 -3 22 -7 72 -10 110 -3 39 -7 88 -10 110 -2 22 -7 72 -10 110
-3 39 -8 88 -10 110 -2 22 -7 72 -10 110 -4 39 -8 84 -10 100 -2 17 -7 63 -10
103 -3 41 -7 92 -10 115 -5 56 -16 171 -21 227 -2 25 -6 75 -9 111 -3 37 -7
82 -9 100 -2 19 -7 66 -11 104 -3 39 -8 93 -11 120 -7 76 -12 132 -19 220 -13
145 -52 216 -144 257 -41 19 -67 20 -318 21 l-273 0 -1 391 c-2 445 -3 469
-24 576 -32 166 -140 410 -229 521 -12 14 -30 38 -41 53 -28 39 -142 154 -195
197 -176 144 -400 247 -619 284 -76 14 -294 28 -303 20z m262 -170 c117 -22
125 -24 202 -51 424 -152 712 -506 785 -967 6 -39 11 -815 5 -838 -3 -15 -101
-16 -1185 -15 l-1182 1 1 395 c0 418 4 469 35 593 114 451 489 800 945 881
103 18 299 18 394 1z m-1530 -2484 c0 -155 2 -170 21 -195 38 -49 127 -24 130
37 1 12 2 90 3 172 1 144 2 150 21 147 64 -12 151 -87 193 -166 22 -44 26 -64
27 -141 0 -75 -4 -98 -24 -139 -31 -62 -94 -126 -157 -157 -69 -34 -208 -34
-272 0 -197 103 -248 340 -109 506 32 38 131 103 160 105 4 0 7 -76 7 -169z
m2525 7 c-1 -84 3 -165 8 -181 18 -53 91 -65 126 -21 19 25 21 40 21 195 0 93
3 169 6 169 14 0 111 -53 133 -73 105 -97 136 -258 75 -384 -33 -67 -83 -116
-154 -151 -47 -23 -67 -27 -140 -27 -100 1 -157 23 -224 89 -68 68 -91 125
-91 231 0 78 4 97 27 140 35 67 91 123 152 151 27 12 53 21 56 19 4 -2 6 -73
5 -157z"/>
</g>
</svg>
